<svg id="Layer_1" data-name="Layer 1"  width="100" height="100" xmlns="http://www.w3.org/2000/svg" viewBox="0 0 536.54 585.26"><defs><style>.cls-1{stroke:#74abff;}.cls-1,.cls-2,.cls-3{stroke-miterlimit:10;}.cls-2,.cls-3{stroke:currentColor;}.cls-2{stroke-width:42px;}.cls-3{font-size:99px;stroke-width:2px;font-family:Futura-Bold, Futura;font-weight:700;letter-spacing:0.05em;}.cls-4{font-size:119px;letter-spacing:0.05em;}.cls-5{letter-spacing:0.01em;}.cls-6{letter-spacing:0.05em;}</style></defs><title>2-SPAN</title><polyline points="179.9 407.46 272.75 407.46 272.75 449.46 142.65 449.46 142.65 448.11"/><circle class="cls-1" cx="223.89" cy="280.69" r="27.15"/><polyline points="207.78 163.98 261.51 150.38 271.82 191.1 229.4 201.84"/><line class="cls-2" x1="450.84" y1="281.35" x2="516.19" y2="538.27"/><polygon points="103.29 284.58 43 284.58 49.62 0.98 7.63 0 0 326.8 0.43 326.41 0.43 326.58 130.53 326.58 130.53 326.48 130.58 326.51 192.05 188.63 153.69 171.53 103.29 284.58"/><circle cx="81.67" cy="157.8" r="27.15"/><path d="M422.61,560.19,357.26,303.27l-.26.07A174.11,174.11,0,0,0,147.59,177.53l0-.05-53.72,13.6,21.61,37.85,40.22-10.18v0a132.17,132.17,0,0,1,160.78,95.54l.24-.07,65.2,256.29Z" transform="translate(-28.29 -149.98)"/><polygon points="142.22 449.69 185.15 410.38 189.81 210.85 145.48 310.29 142.22 449.69"/><polygon points="191.84 123.87 149.86 122.89 148.87 165.17 150.15 162.29 190.53 180.29 191.84 123.87"/><polygon points="295.92 294.42 234.44 432.29 272.8 449.4 324.33 333.82 316.66 303.67 295.92 294.42"/><path d="M311.41,322.82,309.69,316a127.27,127.27,0,0,0-6.2-18.35q-8,1.26-15.94,3.28l10.36,40.7a133.13,133.13,0,0,1,17.72-3.26l-4-15.65Z" transform="translate(-28.29 -149.98)"/><path d="M458.69,437.2l40.7-10.36a174.54,174.54,0,0,0-136.1-128.26l11.87,46.69a133.6,133.6,0,0,1,22.94,10.84A131.38,131.38,0,0,1,458.69,437.2Z" transform="translate(-28.29 -149.98)"/><text class="cls-3" transform="translate(1.12 543.32)">2<tspan class="cls-4" x="72.37" y="0">-</tspan><tspan x="112.59" y="0">S</tspan><tspan class="cls-5" x="181.59" y="0">P</tspan><tspan class="cls-6" x="249.6" y="0">AN</tspan></text></svg>